<?xml version="1.0" standalone="no"?>
<!DOCTYPE svg PUBLIC "-//W3C//DTD SVG 20010904//EN"
 "http://www.w3.org/TR/2001/REC-SVG-20010904/DTD/svg10.dtd">
<svg version="1.0" xmlns="http://www.w3.org/2000/svg"
 width="1280.000000pt" height="720.000000pt" viewBox="0 0 1280.000000 720.000000"
 preserveAspectRatio="xMidYMid meet">
<metadata>
Created by potrace 1.15, written by Peter Selinger 2001-2017
</metadata>
<g transform="translate(0.000000,720.000000) scale(0.100000,-0.100000)"
fill="#000000" stroke="none">
<path d="M2086 6818 c-12 -20 -597 -1316 -1011 -2243 -81 -181 -155 -338 -163
-347 -14 -17 -49 -18 -464 -18 l-448 0 0 -1245 0 -1245 488 0 c268 0 492 -4
498 -8 6 -4 194 -268 419 -587 506 -719 520 -739 541 -756 14 -11 171 -14 985
-14 l969 0 0 367 0 368 -657 2 -657 3 -104 180 c-58 99 -208 360 -336 580
l-231 400 0 455 0 455 418 680 c231 374 424 686 431 693 10 10 131 12 574 12
l562 0 0 215 0 215 -584 0 -583 0 -124 -86 c-68 -48 -137 -96 -154 -107 l-30
-22 22 30 c30 43 343 408 357 417 6 4 255 8 554 8 l542 0 0 215 0 215 -662 0
-661 0 -56 -57 c-59 -61 -264 -282 -289 -311 -33 -40 5 34 150 291 l150 267
684 0 684 0 0 215 0 215 -758 0 -758 0 -138 -205 c-77 -113 -140 -205 -142
-205 -4 0 4 18 140 320 54 118 105 221 114 228 12 9 184 12 779 12 l763 0 0
210 0 210 -900 0 -900 0 -14 -22z"/>
<path d="M8900 6630 l0 -210 763 0 c595 0 767 -3 779 -12 14 -11 109 -213 235
-498 33 -74 25 -64 -123 155 -70 105 -133 193 -138 197 -6 4 -350 8 -763 8
l-753 0 0 -215 0 -215 684 0 684 0 150 -267 c145 -257 183 -331 150 -291 -25
29 -230 250 -289 311 l-56 57 -661 0 -662 0 0 -215 0 -215 545 0 c507 0 546
-1 563 -18 30 -30 347 -403 356 -420 6 -11 1 -10 -20 5 -16 11 -85 59 -153
107 l-124 86 -583 0 -584 0 0 -215 0 -215 565 0 566 0 45 -72 c49 -79 607
-984 732 -1188 l77 -125 0 -455 0 -455 -231 -400 c-128 -220 -279 -481 -336
-580 l-104 -180 -657 -3 -657 -2 0 -368 0 -367 958 0 c526 1 968 4 982 8 18 5
61 58 146 180 381 544 819 1163 828 1169 6 4 230 8 499 8 l487 0 0 1245 0
1245 -448 0 c-415 0 -450 1 -464 18 -8 9 -82 166 -163 347 -414 927 -999 2223
-1011 2243 l-14 22 -900 0 -900 0 0 -210z"/>
<path d="M6440 5202 c-13 -5 -14 -448 -1 -456 5 -3 80 -10 167 -16 88 -5 260
-21 384 -36 308 -36 292 -37 306 6 38 113 89 478 70 497 -7 7 -904 12 -926 5z"/>
<path d="M7429 5200 c-5 -3 -16 -73 -24 -155 -15 -138 -22 -181 -55 -333 -7
-30 -8 -57 -4 -61 10 -9 364 -101 388 -101 20 0 93 152 134 280 33 105 60 236
64 317 l3 52 -248 3 c-137 2 -253 1 -258 -2z"/>
<path d="M4860 5193 c1 -43 35 -228 55 -303 26 -94 104 -288 130 -324 14 -19
20 -18 211 30 107 27 199 51 204 54 5 3 0 36 -10 73 -25 89 -60 297 -60 356 0
25 -3 63 -6 84 l-7 37 -258 0 c-143 0 -259 -3 -259 -7z"/>
<path d="M5434 5108 c4 -51 11 -124 17 -163 13 -84 57 -267 68 -278 4 -4 63 1
132 12 68 11 253 29 410 39 158 11 292 22 298 26 8 5 11 76 11 232 l0 224
-471 0 -472 0 7 -92z"/>
<path d="M6120 4683 c-165 -9 -471 -46 -567 -68 l-21 -5 28 -74 c56 -144 137
-292 236 -433 l44 -62 73 53 c94 67 149 90 319 134 l138 35 0 214 0 213 -97
-2 c-54 -1 -123 -3 -153 -5z"/>
<path d="M6434 4677 c-2 -7 -3 -105 -2 -217 l3 -205 50 -8 c171 -28 256 -59
376 -138 50 -33 97 -58 103 -56 39 15 213 319 275 481 26 67 27 76 12 80 -52
16 -328 47 -531 61 -283 18 -279 18 -286 2z"/>
<path d="M5295 4560 c-82 -22 -162 -42 -177 -46 -16 -4 -28 -12 -28 -19 0 -52
258 -332 410 -444 75 -56 206 -131 227 -131 5 0 23 18 41 41 l34 40 -80 127
c-88 139 -131 221 -197 370 -31 69 -48 98 -61 99 -11 1 -86 -16 -169 -37z"/>
<path d="M7303 4563 c-89 -214 -153 -337 -250 -476 -60 -85 -60 -77 -4 -146
l19 -25 44 19 c82 37 250 157 345 249 91 86 218 239 248 296 l13 26 -191 47
c-106 26 -196 47 -200 47 -4 0 -15 -17 -24 -37z"/>
<path d="M6251 4189 c-109 -21 -231 -75 -318 -140 -29 -22 -53 -45 -53 -51 0
-14 132 -154 175 -185 31 -23 95 -36 238 -48 l77 -7 0 221 0 221 -37 -1 c-21
-1 -58 -5 -82 -10z"/>
<path d="M6430 3986 c0 -122 4 -217 9 -221 13 -7 269 23 290 35 9 5 58 51 109
103 l94 94 -44 37 c-87 76 -314 166 -415 166 l-43 0 0 -214z"/>
<path d="M4547 3436 c-143 -40 -236 -179 -225 -337 9 -121 40 -166 250 -367
140 -133 171 -205 126 -291 -43 -83 -129 -102 -256 -56 -38 14 -75 25 -81 25
-7 0 -11 -25 -11 -70 0 -56 4 -74 20 -90 29 -29 125 -54 205 -54 124 0 231 69
284 183 21 46 26 71 26 141 0 144 -24 179 -273 412 -119 111 -149 193 -101
277 52 92 139 102 314 35 13 -5 15 6 15 69 0 85 -3 90 -76 112 -73 22 -162 27
-217 11z"/>
<path d="M7271 3435 c-175 -49 -264 -203 -292 -503 -18 -201 14 -439 76 -562
57 -112 158 -174 285 -174 72 1 141 15 168 37 8 6 12 37 12 88 l0 78 -47 -21
c-60 -26 -136 -28 -186 -3 -103 49 -158 251 -143 515 14 233 60 339 168 384
47 20 91 20 154 1 27 -8 50 -15 52 -15 1 0 2 34 2 76 l0 75 -34 14 c-53 22
-153 27 -215 10z"/>
<path d="M5890 2823 l0 -613 80 0 80 0 0 292 c0 176 4 288 9 282 5 -5 69 -136
141 -291 l133 -283 88 0 c49 0 89 2 89 3 0 2 -63 134 -140 293 -77 159 -140
292 -140 295 0 4 20 12 45 19 61 17 129 79 152 138 22 58 25 246 4 305 -18 52
-67 107 -117 128 -45 20 -175 37 -326 42 l-98 3 0 -613z m337 437 c39 -25 48
-57 48 -165 -1 -148 -26 -179 -153 -191 l-72 -7 0 193 0 193 78 -5 c42 -2 87
-11 99 -18z"/>
<path d="M5032 2923 c3 -499 4 -509 26 -564 38 -94 101 -140 218 -159 130 -21
252 7 320 75 77 77 77 79 82 653 l3 502 -85 0 -86 0 0 -480 c0 -548 1 -543
-74 -580 -53 -25 -108 -25 -164 0 -73 33 -72 23 -72 575 l0 485 -86 0 -85 0 3
-507z"/>
<path d="M6630 2820 l0 -610 80 0 80 0 0 610 0 610 -80 0 -80 0 0 -610z"/>
<path d="M7816 3263 c-21 -92 -53 -231 -71 -308 -19 -77 -63 -268 -100 -425
-37 -157 -69 -293 -71 -302 -5 -16 3 -18 75 -18 53 0 82 4 88 13 4 6 19 59 33
117 l26 105 136 3 137 3 11 -41 c5 -22 15 -59 21 -82 6 -24 15 -60 20 -80 l10
-38 85 0 84 0 -7 28 c-3 15 -68 288 -143 607 l-136 580 -79 3 -80 3 -39 -168z
m174 -422 c27 -133 50 -244 50 -246 0 -3 -47 -5 -105 -5 -58 0 -105 4 -105 8
0 5 23 115 50 246 28 131 50 240 50 244 0 30 18 -42 60 -247z"/>
<path d="M8420 2822 l0 -612 85 0 85 0 2 290 3 290 135 -288 135 -287 88 -3
c50 -2 87 1 87 7 0 5 -63 138 -140 296 -77 158 -140 289 -140 290 0 2 19 7 43
13 63 16 121 62 148 119 22 43 24 61 24 183 0 129 -1 137 -28 182 -54 93 -118
115 -359 125 l-168 6 0 -611z m311 447 c65 -16 74 -36 74 -164 0 -162 -21
-190 -150 -202 l-65 -6 0 196 0 196 53 -5 c28 -4 68 -10 88 -15z"/>
<path d="M9160 2820 l0 -610 245 0 245 0 0 75 0 75 -160 0 -160 0 0 211 0 210
145 -3 145 -3 0 73 0 72 -145 0 -145 0 0 180 0 180 160 0 160 0 0 75 0 75
-245 0 -245 0 0 -610z"/>
</g>
</svg>
